<?xml version="1.0" encoding="UTF-8" standalone="no"?>
<svg
   xmlns:dc="http://purl.org/dc/elements/1.1/"
   xmlns:cc="http://creativecommons.org/ns#"
   xmlns:rdf="http://www.w3.org/1999/02/22-rdf-syntax-ns#"
   xmlns:svg="http://www.w3.org/2000/svg"
   xmlns="http://www.w3.org/2000/svg"
   xmlns:sodipodi="http://sodipodi.sourceforge.net/DTD/sodipodi-0.dtd"
   xmlns:inkscape="http://www.inkscape.org/namespaces/inkscape"
   viewBox="0 0 12.146414 13.000451"
   version="1.1"
   id="svg415"
   sodipodi:docname="vpn.svg"
   width="12.146414"
   height="13.000451"
   inkscape:version="0.92.3 (2405546, 2018-03-11)">
  <metadata
     id="metadata419">
    <rdf:RDF>
      <cc:Work
         rdf:about="">
        <dc:format>image/svg+xml</dc:format>
        <dc:type
           rdf:resource="http://purl.org/dc/dcmitype/StillImage" />
        <dc:title></dc:title>
      </cc:Work>
    </rdf:RDF>
  </metadata>
  <sodipodi:namedview
     pagecolor="#ffffff"
     bordercolor="#666666"
     borderopacity="1"
     objecttolerance="10"
     gridtolerance="10"
     guidetolerance="10"
     inkscape:pageopacity="0"
     inkscape:pageshadow="2"
     inkscape:window-width="718"
     inkscape:window-height="480"
     id="namedview417"
     showgrid="false"
     fit-margin-top="0.5"
     fit-margin-left="0.5"
     fit-margin-bottom="0.5"
     fit-margin-right="0.5"
     inkscape:zoom="14.75"
     inkscape:cx="6.0808517"
     inkscape:cy="6.4947369"
     inkscape:window-x="147"
     inkscape:window-y="214"
     inkscape:window-maximized="0"
     inkscape:current-layer="svg415" />
  <defs
     id="defs411">
    <linearGradient
       gradientUnits="userSpaceOnUse"
       y2="-2.6229999"
       x2="0"
       y1="986.66998"
       id="0">
      <stop
         stop-color="#ffce3b"
         id="stop400" />
      <stop
         offset="1"
         stop-color="#ffd762"
         id="stop402" />
    </linearGradient>
    <linearGradient
       y2="-2.6229999"
       x2="0"
       y1="986.66998"
       gradientUnits="userSpaceOnUse"
       id="linearGradient409">
      <stop
         stop-color="#ffce3b"
         id="stop405" />
      <stop
         offset="1"
         stop-color="#fef4ab"
         id="stop407" />
    </linearGradient>
  </defs>
  <path
     d="M 6.0729097,0.5 C 5.9956556,0.5 5.9184015,0.5240013 5.853148,0.5720038 5.2283647,1.0272781 3.3285134,2.2700944 1.0011392,2.488356 0.7213743,2.5138574 0.5068629,2.7463698 0.5016126,3.0276348 0.4731111,4.8629827 0.7671268,11.095065 5.9319022,12.481889 c 0.091505,0.02475 0.18826,0.02475 0.2797649,0 C 11.376443,11.096565 11.671958,4.8629827 11.644957,3.0276348 11.641207,2.7463698 11.423695,2.5146074 11.14393,2.488356 8.816556,2.2708444 6.9182048,1.0272781 6.2919214,0.5720038 6.2266679,0.5240013 6.1494138,0.5 6.0721597,0.5 m 0,4.12522 c 0.6307836,0 1.1423109,0.5115273 1.1423109,1.1423109 0,0.3255174 -0.1365073,0.618033 -0.3547689,0.8265441 L 7.165718,8.2156615 C 7.1822189,8.3041662 7.1222157,8.37542 7.0322109,8.37542 H 5.1323596 c -0.089255,0 -0.150008,-0.072004 -0.1335072,-0.1597585 L 5.3018686,6.6113259 C 5.0731064,6.4020648 4.9283487,6.1020488 4.9283487,5.7675309 4.9283487,5.1367473 5.439876,4.62522 6.0706596,4.62522 Z"
     id="path413"
     inkscape:connector-curvature="0"
     style="fill:#2b5daa;fill-opacity:1;stroke:none;stroke-width:7.13438034" />
</svg>
