<?xml version="1.0" encoding="UTF-8" standalone="no"?>
<!-- Created with Inkscape (http://www.inkscape.org/) -->

<svg
   xmlns:dc="http://purl.org/dc/elements/1.1/"
   xmlns:cc="http://creativecommons.org/ns#"
   xmlns:rdf="http://www.w3.org/1999/02/22-rdf-syntax-ns#"
   xmlns:svg="http://www.w3.org/2000/svg"
   xmlns="http://www.w3.org/2000/svg"
   xmlns:sodipodi="http://sodipodi.sourceforge.net/DTD/sodipodi-0.dtd"
   xmlns:inkscape="http://www.inkscape.org/namespaces/inkscape"
   x="0"
   y="0"
   width="180px"
   height="180px"
   viewBox="0 0 180 180"
   id="svg4216"
   version="1.1"
   inkscape:version="0.48.4 r9939"
   sodipodi:docname="upnp.svg">
  <defs
     id="defs4218" />
  <sodipodi:namedview
     id="base"
     pagecolor="#ffffff"
     bordercolor="#666666"
     borderopacity="1.0"
     inkscape:pageopacity="1"
     inkscape:pageshadow="2"
     inkscape:zoom="1.4"
     inkscape:cx="142.81769"
     inkscape:cy="69.694598"
     inkscape:document-units="px"
     inkscape:current-layer="layer1"
     showgrid="false"
     showborder="true"
     fit-margin-top="1"
     fit-margin-left="1"
     fit-margin-right="1"
     fit-margin-bottom="1"
     inkscape:window-width="666"
     inkscape:window-height="509"
     inkscape:window-x="484"
     inkscape:window-y="423"
     inkscape:window-maximized="0" />
  <metadata
     id="metadata4221">
    <rdf:RDF>
      <cc:Work
         rdf:about="">
        <dc:format>image/svg+xml</dc:format>
        <dc:type
           rdf:resource="http://purl.org/dc/dcmitype/StillImage" />
        <dc:title></dc:title>
      </cc:Work>
    </rdf:RDF>
  </metadata>
  <g
     inkscape:label="Layer 1"
     inkscape:groupmode="layer"
     id="layer1"
     transform="translate(1.971571,-846.44268)">
    <path
       style="fill:#262829;fill-rule:evenodd"
       inkscape:connector-curvature="0"
       id="path3062"
       d="m 5.029429,910.5236 h 10.025 v 28.837 c 0,8.541 2.723,14.109 10.396,14.109 7.674,0 10.396,-5.568 10.396,-14.109 v -28.837 h 10.025 v 31.931 c 0,13.367 -7.55,18.938 -20.422,18.938 -12.748,0 -20.421,-5.57 -20.421,-18.938 v -31.931 l 0.001,0 z"
       clip-rule="evenodd" />
    <path
       style="fill:#262829;fill-rule:evenodd"
       inkscape:connector-curvature="0"
       id="path3064"
       d="m 65.922429,918.3216 h 3.465 c 5.198,0 9.530001,2.104 9.530001,7.921 0,5.693 -4.580001,7.426 -9.530001,7.426 h -3.465 v -15.347 l 0,0 z m -10.025,42.204 h 10.025 v -19.061 h 4.208 c 10.768001,0 19.184001,-4.207 19.184001,-15.841 0,-12.005 -9.902,-15.1 -20.793001,-15.1 h -12.624 v 50.002 l 0,0 z"
       clip-rule="evenodd" />
    <path
       style="fill:#262829;fill-rule:evenodd"
       inkscape:connector-curvature="0"
       id="path3066"
       d="m 95.25443,923.6436 h 9.035 v 4.95 h 0.124 c 3.094,-4.208 7.178,-5.817 12.129,-5.817 8.787,0 12.624,6.188 12.624,14.481 v 23.268 h -9.654 v -19.678 c 0,-4.58 -0.123,-10.645 -6.188,-10.645 -6.931,0 -8.54,7.549 -8.54,12.252 v 18.07 h -9.53 v -36.881 l 0,0 z"
       clip-rule="evenodd" />
    <path
       style="fill:#262829;fill-rule:evenodd"
       inkscape:connector-curvature="0"
       id="path3068"
       d="m 148.59843,918.3216 h 3.465 c 5.198,0 9.53,2.104 9.53,7.921 0,5.693 -4.456,7.426 -9.53,7.426 h -3.465 v -15.347 l 0,0 z m -10.025,42.204 h 10.025 v -19.061 h 4.208 c 10.768,0 19.308,-4.207 19.308,-15.841 0,-12.005 -10.025,-15.1 -20.917,-15.1 h -12.624 v 50.002 l 0,0 z"
       clip-rule="evenodd" />
    <path
       style="fill:#6dc06a;fill-rule:evenodd"
       inkscape:connector-curvature="0"
       id="path3074"
       d="m 157.13743,909.5336 c 2.724,-13.491 -4.579,-22.278 -22.03,-22.526 -17.822,-0.371 -42.204,8.169 -65.348001,21.783 21.288001,-10.272 42.947001,-16.461 60.027001,-16.213 16.708,0.371 25.866,6.683 27.351,16.956 l 0,0 z"
       clip-rule="evenodd" />
    <path
       style="fill:#6dc06a;fill-rule:evenodd"
       inkscape:connector-curvature="0"
       id="path3076"
       d="m 13.321429,960.6506 c -2.847,13.49 4.456,22.277 21.907,22.771 17.698,0.496 42.204,-7.797 65.596001,-21.039 -21.412,10.025 -43.194001,15.965 -60.274001,15.471 -16.709,-0.496 -25.743,-6.932 -27.229,-17.203 l 0,0 z"
       clip-rule="evenodd" />
  </g>
</svg>
